<?xml version="1.0" encoding="UTF-8" standalone="no"?>
<!-- Created with Inkscape (http://www.inkscape.org/) -->

<svg
   xmlns:dc="http://purl.org/dc/elements/1.1/"
   xmlns:cc="http://creativecommons.org/ns#"
   xmlns:rdf="http://www.w3.org/1999/02/22-rdf-syntax-ns#"
   xmlns:svg="http://www.w3.org/2000/svg"
   xmlns="http://www.w3.org/2000/svg"
   xmlns:sodipodi="http://sodipodi.sourceforge.net/DTD/sodipodi-0.dtd"
   xmlns:inkscape="http://www.inkscape.org/namespaces/inkscape"
   id="svg2"
   version="1.1"
   inkscape:version="0.91 r13725"
   xml:space="preserve"
   width="205.804"
   height="70.00013"
   viewBox="0 0 205.804 70.000133"
   sodipodi:docname="logo.svg"
   inkscape:export-filename="/home/ed/Desktop/bioacoustica_logo.png"
   inkscape:export-xdpi="299.57086"
   inkscape:export-ydpi="299.57086"><metadata
     id="metadata8"><rdf:RDF><cc:Work
         rdf:about=""><dc:format>image/svg+xml</dc:format><dc:type
           rdf:resource="http://purl.org/dc/dcmitype/StillImage" /><dc:title></dc:title></cc:Work></rdf:RDF></metadata><defs
     id="defs6"><clipPath
       clipPathUnits="userSpaceOnUse"
       id="clipPath18"><path
         d="m 0,178.931 414.666,0 L 414.666,0 0,0 0,178.931 Z"
         id="path20"
         inkscape:connector-curvature="0" /></clipPath></defs><sodipodi:namedview
     pagecolor="#ffffff"
     bordercolor="#666666"
     borderopacity="1"
     objecttolerance="10"
     gridtolerance="10"
     guidetolerance="10"
     inkscape:pageopacity="0"
     inkscape:pageshadow="2"
     inkscape:window-width="1689"
     inkscape:window-height="1008"
     id="namedview4"
     showgrid="false"
     fit-margin-top="0"
     fit-margin-left="0"
     fit-margin-right="0"
     fit-margin-bottom="0"
     inkscape:zoom="0.85273446"
     inkscape:cx="-52.017746"
     inkscape:cy="25.809446"
     inkscape:window-x="51"
     inkscape:window-y="34"
     inkscape:window-maximized="0"
     inkscape:current-layer="g10" /><g
     id="g10"
     inkscape:groupmode="layer"
     inkscape:label="bio_acoustica_logo_DRAFTS"
     transform="matrix(1.25,0,0,-1.25,-154.62882,156.02256)"
     style="display:inline"><path
       d="m 142.93823,69.56704 -1.68042,0 0,15.618528 1.68042,0 0,-15.618528 z m 0,20.864117 -1.68042,0 0,2.595599 1.68042,0 0,-2.595599 z"
       style="fill:#69c290;fill-opacity:1;fill-rule:nonzero;stroke:none"
       id="path12"
       inkscape:connector-curvature="0"
       inkscape:export-filename="/home/ed/Desktop/g52.png"
       inkscape:export-xdpi="42.566238"
       inkscape:export-ydpi="42.566238" /><g
       id="g22"
       transform="matrix(0.47295907,0,0,0.47295907,155.23165,70.447615)"
       inkscape:export-filename="/home/ed/Desktop/g52.png"
       inkscape:export-xdpi="42.566238"
       inkscape:export-ydpi="42.566238"><path
         d="m 0,0 c 3.709,0 6.809,1.298 9.297,3.895 2.488,2.596 3.733,5.857 3.733,9.781 0,3.9 -1.251,7.167 -3.751,9.799 -2.501,2.632 -5.593,3.949 -9.279,3.949 -3.732,0 -6.85,-1.305 -9.35,-3.913 -2.502,-2.609 -3.752,-5.887 -3.752,-9.835 0,-3.924 1.25,-7.185 3.752,-9.781 C -6.85,1.298 -3.732,0 0,0 m 0,30.869 c 4.786,0 8.776,-1.639 11.971,-4.917 3.195,-3.278 4.793,-7.37 4.793,-12.276 0,-4.882 -1.598,-8.955 -4.793,-12.222 C 8.776,-1.812 4.786,-3.445 0,-3.445 c -4.785,0 -8.788,1.633 -12.006,4.899 -3.219,3.267 -4.828,7.34 -4.828,12.222 0,4.906 1.609,8.998 4.828,12.276 3.218,3.278 7.221,4.917 12.006,4.917"
         style="fill:#69c290;fill-opacity:1;fill-rule:nonzero;stroke:none"
         id="path24"
         inkscape:connector-curvature="0" /></g><g
       id="g26"
       transform="matrix(0.47295907,0,0,0.47295907,175.00957,72.213361)"
       style="fill:#ffffff;fill-opacity:1"
       inkscape:export-filename="/home/ed/Desktop/g52.png"
       inkscape:export-xdpi="42.566238"
       inkscape:export-ydpi="42.566238"><path
         d="m 0,0 0,10.302 c -4.522,0.167 -8.273,-0.629 -11.253,-2.388 -2.978,-1.759 -4.469,-4.002 -4.469,-6.729 0,-1.533 0.622,-2.825 1.868,-3.877 1.244,-1.053 2.798,-1.579 4.666,-1.579 3.014,0 6.078,1.423 9.188,4.271 m 9.046,-0.79 0,-3.599 c -3.039,-2.297 -5.265,-2.79 -6.677,-2.79 -0.813,0 -1.376,0.269 -1.687,0.807 -0.311,0.539 -0.538,1.634 -0.682,3.285 -3.47,-2.728 -6.915,-4.092 -10.337,-4.092 -2.489,0 -4.596,0.814 -6.318,2.441 -1.723,1.627 -2.584,3.601 -2.584,5.923 0,3.588 1.663,6.419 4.989,8.488 3.326,2.07 8.076,3.261 14.25,3.572 l 0,4.199 c 0,4.499 -2.44,6.748 -7.322,6.748 -3.111,0 -6.474,-1.399 -10.087,-4.199 l 0,3.625 c 3.733,2.346 7.287,3.518 10.661,3.518 2.991,0 5.456,-0.736 7.394,-2.207 1.939,-1.472 2.908,-3.608 2.908,-6.408 l 0,-20.567 c 0,-1.125 0.263,-1.687 0.79,-1.687 0.67,0 2.237,0.981 4.702,2.943"
         style="fill:#ffffff;fill-opacity:1;fill-rule:nonzero;stroke:none"
         id="path28"
         inkscape:connector-curvature="0" /></g><g
       id="g30"
       transform="matrix(0.47295907,0,0,0.47295907,192.66513,84.283513)"
       style="fill:#ffffff;fill-opacity:1"
       inkscape:export-filename="/home/ed/Desktop/g52.png"
       inkscape:export-xdpi="42.566238"
       inkscape:export-ydpi="42.566238"><path
         d="m 0,0 0,-3.912 c -3.158,1.388 -6.018,2.082 -8.578,2.082 -3.686,0 -6.683,-1.28 -8.992,-3.841 -2.309,-2.56 -3.463,-5.887 -3.463,-9.978 0,-4.164 1.154,-7.473 3.463,-9.925 2.309,-2.453 5.402,-3.68 9.279,-3.68 2.823,0 5.791,0.634 8.901,1.902 l 0,-3.661 c -3.301,-1.125 -6.365,-1.686 -9.188,-1.686 -4.834,0 -8.74,1.531 -11.72,4.594 -2.979,3.063 -4.469,7.084 -4.469,12.06 0,5.193 1.501,9.435 4.505,12.725 3.003,3.291 6.838,4.935 11.504,4.935 C -6.197,1.615 -3.277,1.077 0,0"
         style="fill:#ffffff;fill-opacity:1;fill-rule:nonzero;stroke:none"
         id="path32"
         inkscape:connector-curvature="0" /></g><g
       id="g34"
       transform="matrix(0.47295907,0,0,0.47295907,203.41156,70.447615)"
       style="fill:#ffffff;fill-opacity:1"
       inkscape:export-filename="/home/ed/Desktop/g52.png"
       inkscape:export-xdpi="42.566238"
       inkscape:export-ydpi="42.566238"><path
         d="m 0,0 c 3.709,0 6.809,1.298 9.297,3.895 2.489,2.596 3.733,5.857 3.733,9.781 0,3.9 -1.251,7.167 -3.751,9.799 -2.501,2.632 -5.593,3.949 -9.279,3.949 -3.733,0 -6.85,-1.305 -9.351,-3.913 -2.5,-2.609 -3.751,-5.887 -3.751,-9.835 0,-3.924 1.251,-7.185 3.751,-9.781 C -6.85,1.298 -3.733,0 0,0 m 0,30.869 c 4.786,0 8.776,-1.639 11.971,-4.917 3.195,-3.278 4.792,-7.37 4.792,-12.276 0,-4.882 -1.597,-8.955 -4.792,-12.222 C 8.776,-1.812 4.786,-3.445 0,-3.445 c -4.786,0 -8.788,1.633 -12.007,4.899 -3.219,3.267 -4.828,7.34 -4.828,12.222 0,4.906 1.609,8.998 4.828,12.276 3.219,3.278 7.221,4.917 12.007,4.917"
         style="fill:#ffffff;fill-opacity:1;fill-rule:nonzero;stroke:none"
         id="path36"
         inkscape:connector-curvature="0" /></g><g
       id="g38"
       transform="matrix(0.47295907,0,0,0.47295907,240.62478,84.17634)"
       style="fill:#ffffff;fill-opacity:1"
       inkscape:export-filename="/home/ed/Desktop/g52.png"
       inkscape:export-xdpi="42.566238"
       inkscape:export-ydpi="42.566238"><path
         d="m 0,0 0,-3.264 c -3.351,1.292 -6.366,1.875 -9.046,1.875 -1.986,0 -3.661,-0.538 -5.025,-1.609 -1.364,-1.073 -2.046,-2.398 -2.046,-3.975 0,-1.122 0.416,-2.154 1.244,-3.096 0.829,-0.943 3.114,-2.136 6.856,-3.58 3.739,-1.445 6.186,-2.947 7.334,-4.502 1.149,-1.556 1.723,-3.29 1.723,-5.204 0,-2.561 -1.04,-4.721 -3.122,-6.48 -2.082,-1.759 -4.654,-2.638 -7.718,-2.638 -3.326,0 -6.629,1.005 -9.906,3.015 l 0,3.446 c 3.9,-2.01 7.357,-3.015 10.373,-3.015 2.034,0 3.703,0.538 5.008,1.615 1.304,1.074 1.956,2.45 1.956,4.125 0,1.148 -0.425,2.204 -1.275,3.174 -0.852,0.968 -3.15,2.195 -6.891,3.681 -3.745,1.488 -6.174,2.953 -7.287,4.401 -1.113,1.448 -1.669,3.056 -1.669,4.828 0,2.513 1.035,4.648 3.104,6.407 2.071,1.759 4.589,2.638 7.557,2.638 C -6.126,1.842 -3.183,0.909 0,0"
         style="fill:#ffffff;fill-opacity:1;fill-rule:nonzero;stroke:none"
         id="path40"
         inkscape:connector-curvature="0" /></g><g
       id="g42"
       transform="matrix(0.47295907,0,0,0.47295907,247.39817,89.919766)"
       style="fill:#ffffff;fill-opacity:1"
       inkscape:export-filename="/home/ed/Desktop/g52.png"
       inkscape:export-xdpi="42.566238"
       inkscape:export-ydpi="42.566238"><path
         d="m 0,0 0,-11.962 9.261,0 0,-3.062 -9.261,0 0,-18.429 c 0,-3.159 0.258,-5.235 0.771,-6.229 0.515,-0.993 1.897,-1.489 4.147,-1.489 1.723,0 3.732,0.538 6.03,1.615 l 0,-3.374 c -2.321,-1.125 -4.594,-1.686 -6.82,-1.686 -2.178,0 -3.996,0.622 -5.456,1.866 -1.459,1.244 -2.19,2.967 -2.19,5.169 l 0,22.557 -8.901,0 0,3.062 8.901,0 0,11.008 L 0,0 Z"
         style="fill:#ffffff;fill-opacity:1;fill-rule:nonzero;stroke:none"
         id="path44"
         inkscape:connector-curvature="0" /></g><path
       d="m 256.78617,69.12333 -1.68042,0 0,15.093543 1.68042,0 0,-15.093543 z m 0,20.864116 -1.68042,0 0,2.851943 1.68042,0 0,-2.851943 z"
       style="fill:#ffffff;fill-opacity:1;fill-rule:nonzero;stroke:none"
       id="path46"
       inkscape:connector-curvature="0"
       inkscape:export-filename="/home/ed/Desktop/g52.png"
       inkscape:export-xdpi="42.566238"
       inkscape:export-ydpi="42.566238" /><g
       id="g48"
       transform="matrix(0.47295907,0,0,0.47295907,272.38786,84.283513)"
       style="fill:#ffffff;fill-opacity:1"
       inkscape:export-filename="/home/ed/Desktop/g52.png"
       inkscape:export-xdpi="42.566238"
       inkscape:export-ydpi="42.566238"><path
         d="m 0,0 0,-3.912 c -3.158,1.388 -6.019,2.082 -8.578,2.082 -3.686,0 -6.683,-1.28 -8.992,-3.841 -2.31,-2.56 -3.464,-5.887 -3.464,-9.978 0,-4.164 1.154,-7.473 3.464,-9.925 2.309,-2.453 5.402,-3.68 9.279,-3.68 2.823,0 5.791,0.634 8.901,1.902 l 0,-3.661 c -3.301,-1.125 -6.365,-1.686 -9.188,-1.686 -4.834,0 -8.741,1.531 -11.72,4.594 -2.979,3.063 -4.469,7.084 -4.469,12.06 0,5.193 1.501,9.435 4.504,12.725 3.004,3.291 6.838,4.935 11.505,4.935 C -6.197,1.615 -3.278,1.077 0,0"
         style="fill:#ffffff;fill-opacity:1;fill-rule:nonzero;stroke:none"
         id="path50"
         inkscape:connector-curvature="0" /></g><g
       id="g52"
       transform="matrix(0.47295907,0,0,0.47295907,284.0682,72.213361)"
       style="fill:#ffffff;fill-opacity:1"
       inkscape:export-filename="/home/ed/Desktop/g52.png"
       inkscape:export-xdpi="42.566238"
       inkscape:export-ydpi="42.566238"><path
         d="m 0,0 0,10.302 c -4.523,0.167 -8.274,-0.629 -11.254,-2.388 -2.978,-1.759 -4.469,-4.002 -4.469,-6.729 0,-1.533 0.623,-2.825 1.868,-3.877 1.244,-1.053 2.799,-1.579 4.666,-1.579 3.015,0 6.078,1.423 9.189,4.271 m 9.045,-0.79 0,-3.503 C 6.006,-6.59 3.78,-7.179 2.368,-7.179 1.555,-7.179 0.992,-6.91 0.682,-6.372 0.37,-5.833 0.143,-4.738 0,-3.087 c -3.471,-2.728 -6.916,-4.092 -10.338,-4.092 -2.489,0 -4.595,0.814 -6.317,2.441 -1.724,1.627 -2.585,3.601 -2.585,5.923 0,3.588 1.663,6.419 4.989,8.488 3.326,2.07 8.077,3.261 14.251,3.572 l 0,4.199 c 0,4.499 -2.692,6.246 -7.574,6.246 -3.112,0 -6.892,-0.32 -9.835,-2.205 l 0,3.991 c 3.422,1.418 7.286,1.66 10.66,1.66 2.991,0 5.456,-0.736 7.395,-2.207 1.938,-1.472 2.907,-3.608 2.907,-6.408 l 0,-20.567 c 0,-1.125 0.263,-1.687 0.79,-1.687 0.67,0 2.237,0.981 4.702,2.943"
         style="fill:#ffffff;fill-opacity:1;fill-rule:nonzero;stroke:none"
         id="path54"
         inkscape:connector-curvature="0" /></g><g
       id="g56"
       transform="matrix(0.47295907,0,0,0.47295907,269.63647,97.781339)"
       inkscape:export-filename="/home/ed/Desktop/g52.png"
       inkscape:export-xdpi="42.566238"
       inkscape:export-ydpi="42.566238"><path
         d="m 0,0 c -12.859,0 -14.918,2.022 -14.918,8.507 0,7.67 -6.236,13.909 -13.902,13.909 -7.664,0 -13.898,-6.239 -13.898,-13.909 l 0,-9.422 c 0,-5.773 -4.693,-10.473 -10.464,-10.473 -5.769,0 -10.465,4.7 -10.465,10.473 l 0,44.18 c 0,7.667 -6.237,13.9 -13.904,13.9 -7.666,0 -13.897,-6.233 -13.9,-13.896 l -0.305,-0.004 0.305,0 0,-90.55 c 0,-5.774 -4.696,-10.473 -10.466,-10.473 -5.771,0 -10.467,4.699 -10.467,10.473 l 0,55.792 c 0,7.67 -6.236,13.909 -13.903,13.909 -7.663,0 -13.897,-6.239 -13.897,-13.909 l -0.075,0 c 0,-6.431 -2.049,-8.432 -14.845,-8.432 -19.273,0 -153.438,0.364 -153.438,0.364 l 0,-0.084 -0.006,0 0,-1.708 -0.006,-1.791 0.006,0 0,-55.618 c 4.141,-1.651 8.041,-2.476 11.701,-2.476 5.576,0 10.045,1.656 13.408,4.97 3.362,3.315 5.043,7.724 5.043,13.228 0,4.738 -3.177,18.114 -18.875,15.306 l -2.296,-3.192 c 14.931,4.002 17.402,-8.429 17.402,-12.33 0,-4.211 -1.395,-7.687 -4.182,-10.427 -2.788,-2.74 -6.311,-4.11 -10.571,-4.11 -2.68,0 -5.384,0.515 -8.112,1.543 l 0,53.097 c 21.244,-0.057 132.509,-0.356 149.926,-0.356 10.442,0 18.429,0.886 18.429,12.016 l -0.075,0 c 0,5.776 4.693,10.475 10.463,10.475 5.773,0 10.47,-4.699 10.47,-10.475 l 0,-55.792 c 0,-7.67 6.233,-13.906 13.9,-13.906 7.666,0 13.9,6.236 13.9,13.906 l 0,90.55 0.305,0 0,0.042 -0.302,-0.003 c 0.021,5.752 4.705,10.427 10.463,10.427 5.774,0 10.47,-4.696 10.47,-10.466 l 0,-44.18 c 0,-7.67 6.233,-13.906 13.899,-13.906 7.664,0 13.898,6.236 13.898,13.906 l 0,9.422 c 0,5.776 4.693,10.475 10.464,10.475 5.772,0 10.468,-4.699 10.468,-10.475 0,-10.096 6.18,-11.942 18.352,-11.942 l 39.559,0 0,3.435 L 0,0 Z"
         style="fill:#69c290;fill-opacity:1;fill-rule:nonzero;stroke:none"
         id="path58"
         inkscape:connector-curvature="0" /></g></g></svg>